PathFileType	4	(X/Y/Z)	C:\Users\WrightLab\Desktop\Jo\P2_Trial17.trc
DataRate	CameraRate	NumFrames	NumMarkers	Units	OrigDataRate	OrigDataStartFrame	OrigNumFrames
100.00	100.00	      11	19	mm	100.00	775	      1033
Frame#	Time	Headset_Front			Headset_Back			Headset_Left			Headset_Right			Left_Shoulder			Right_Shoulder			Sternum			C7			Left Elbow			Right Elbow			Left Wrist			Right Wrist			Left ASIS			Right ASIS			S2			Left Knee			Right Knee			Left Ankle			Right Ankle			
		X1	Y1	Z1	X2	Y2	Z2	X3	Y3	Z3	X4	Y4	Z4	X5	Y5	Z5	X6	Y6	Z6	X7	Y7	Z7	X8	Y8	Z8	X9	Y9	Z9	X10	Y10	Z10	X11	Y11	Z11	X12	Y12	Z12	X13	Y13	Z13	X14	Y14	Z14	X15	Y15	Z15	X16	Y16	Z16	X17	Y17	Z17	X18	Y18	Z18	X19	Y19	Z19	

775	7.740	-542.90149	1411.39990	-52.74043	-605.03894	1673.59497	97.72469				-461.04517	1515.37195	25.26251	-721.05994	1446.36670	243.66371	-432.88120	1430.05835	94.86937	-603.75958	1312.42590	121.48357	-513.45355	1440.24963	260.84485	-775.20844	1127.67261	321.57739	-204.08609	879.86139	75.24667	-832.23730	1062.28528	177.25783	-281.92557	1123.76221	106.98175	-641.12000	1025.75000	137.08102	-518.66986	1010.22821	90.32313	-492.55966	958.85425	364.55911	-731.25861	447.05728	254.60611	-295.02737	547.02002	243.30074	-748.08789	88.94416	304.32166	-152.66637	147.69856	323.77634	
776	7.750	-548.64197	1414.62952	-56.59396	-611.42712	1676.43884	94.77780	-694.02795	1546.91211	19.49471	-466.62646	1517.72717	19.51522	-725.92157	1447.37927	240.17946	-438.53998	1429.82263	92.00594	-609.71106	1313.83362	117.25176	-518.49951	1440.46228	256.78482	-780.86908	1129.23108	316.16937	-209.38614	877.71082	90.80684	-838.64673	1065.58765	172.39523	-290.88281	1121.60339	105.87456	-646.81415	1027.21118	132.21104	-524.51801	1011.85675	84.15848	-497.44922	959.42822	359.33124	-736.67383	447.69370	253.72644	-303.20352	548.57703	238.15880	-747.07513	89.95999	302.82190	-158.96980	150.85506	320.37720	
777	7.760	-554.64368	1416.82483	-60.49318	-615.67834	1677.82483	92.61256	-699.51776	1549.42554	17.04385	-472.30563	1519.19128	18.41418	-730.80920	1448.38354	236.42130	-443.77145	1430.93188	86.17691	-615.63629	1314.96606	112.95396	-523.73889	1441.34814	252.72633	-786.89063	1130.33228	311.74146	-215.48228	877.42578	103.06451	-845.33002	1067.96924	167.25410	-298.43826	1121.52185	105.89649	-652.42242	1028.26538	127.42777	-530.22076	1012.78162	80.04044	-502.15359	960.15479	353.86053	-741.84454	447.91251	252.73177	-311.89053	549.22919	232.25690	-747.63898	90.74426	301.60870	-166.38757	154.15007	317.22116	
778	7.770	-560.34705	1419.74817	-64.55551	-621.15393	1679.29065	90.66644	-706.37323	1552.13855	14.04227	-477.88354	1521.98987	11.43194	-735.50586	1449.28918	232.85286	-448.67560	1431.08154	80.22928	-620.65662	1316.20801	108.96664	-527.90106	1441.45410	247.94043	-792.90021	1131.87903	307.91498	-221.74834	877.94714	114.50050	-855.10376	1071.22632	159.89243	-304.38889	1121.45483	107.14128	-658.06226	1029.01758	122.08627	-536.06177	1014.30194	74.56468	-506.39749	960.40295	348.56311	-746.58014	448.00079	251.90599	-320.66629	550.13812	225.31973	-748.35590	91.31165	300.14920	-174.66663	157.48495	313.80072	
779	7.780	-565.45355	1421.89539	-68.44961	-625.08783	1680.87012	88.41955	-711.10907	1554.47437	10.33174	-482.74255	1522.89880	11.01830	-739.99292	1450.07495	228.67926	-453.81183	1431.39368	75.78914	-626.12512	1316.73059	104.64333	-532.98352	1442.20923	243.72353	-798.84088	1133.71130	302.30890	-227.35420	879.35205	125.98639	-861.90656	1074.32739	155.66304	-310.12561	1121.97937	109.32381	-663.21899	1029.47681	118.05050	-541.22040	1015.00165	69.47160	-510.41562	961.20459	343.98480	-751.40448	448.17352	251.11182	-330.74854	549.46722	218.38675	-748.50720	91.78682	299.37802	-184.02757	160.49199	310.93604	
780	7.790	-570.57104	1424.16638	-73.22383	-629.52179	1682.22559	85.52374	-715.97900	1555.91577	7.66190	-487.09732	1524.74963	4.82932	-744.46930	1451.09644	224.08665	-458.38535	1431.53015	71.36197	-630.94885	1317.52698	99.62025	-537.26782	1442.61719	238.89359	-804.94885	1134.96301	297.48511	-233.31801	880.90826	136.06874	-867.76752	1077.41467	150.49709	-315.10870	1122.02954	111.65131	-668.08575	1030.20630	113.11700	-546.22638	1015.66400	64.96532	-514.97754	961.51111	338.06161	-756.17950	448.08240	251.04155	-339.73813	550.13055	211.39198	-748.92340	91.23514	297.87933	-193.70146	164.27188	307.13132	
781	7.800	-575.23291	1426.50586	-78.69127	-634.07446	1683.35608	82.12440	-719.03125	1557.18506	3.27907				-749.18628	1451.37183	219.58339	-462.91388	1431.78284	66.37503	-635.82928	1317.52795	95.28982	-542.60187	1443.62329	234.42485	-811.15381	1137.02588	292.13107	-240.05391	882.20337	146.43182	-874.55194	1079.39490	144.92952	-319.99429	1123.56628	113.91441	-673.15576	1030.24207	108.13195	-551.10284	1015.89752	60.27106	-518.68610	961.65698	332.56821	-760.81244	447.87878	251.15945	-349.83990	549.92603	203.49414	-749.20544	91.04778	297.50299	-204.58722	167.82983	305.59161	
782	7.810	-579.65894	1428.33508	-83.86430	-638.44116	1683.50024	78.33687	-724.62982	1559.13440	-1.42631	-496.06778	1527.57520	-2.31154	-754.18982	1452.31372	213.17734	-467.23685	1432.11206	60.82834	-640.06799	1318.33655	90.15555	-546.84778	1443.73218	229.40913	-816.81470	1137.51453	288.25800	-246.67438	883.44501	153.52953	-881.53375	1081.81946	139.41458	-324.58435	1124.94104	116.98102	-677.60376	1030.35583	104.04314	-555.97607	1016.57770	54.14663	-522.01300	962.17731	327.31100	-765.32294	447.27588	251.32655	-360.18619	549.20575	194.93318	-749.01001	90.98289	296.75555	-215.72969	172.43042	300.56149	
783	7.820	-583.03528	1429.53137	-88.78773	-641.05756	1683.88745	75.82097	-728.81799	1559.75183	-6.06783	-499.75287	1529.31384	-10.06422	-758.65704	1452.28796	207.63953	-470.99866	1432.26221	57.21717	-644.93689	1318.60193	84.78824	-551.99915	1444.46973	224.97667	-823.12701	1138.79810	282.86398	-254.91586	883.50269	160.09970	-888.46448	1084.67334	134.86377	-329.45630	1126.76660	120.04637	-681.77618	1030.58533	99.02235	-560.23828	1016.72528	50.02787	-526.11884	962.58942	322.55112	-769.55792	447.17020	252.21156	-371.17929	548.46802	185.26305	-749.10254	91.10287	296.64630	-227.84322	176.96025	296.31842	
784	7.830	-586.73175	1431.21570	-94.40781	-646.85083	1684.81445	70.16797	-732.38910	1560.46033	-11.37219	-503.76620	1529.99719	-13.10569	-763.35779	1452.43896	202.66507	-474.48193	1432.47180	52.82388	-649.34845	1319.38342	78.78309	-556.37830	1444.86890	219.93024	-829.39490	1140.19336	277.56070	-262.14203	884.75110	168.68979	-894.79449	1086.60730	128.71260	-333.81134	1128.51770	123.12028	-685.95648	1030.25903	94.99102	-563.92285	1016.83020	44.64840	-528.77789	962.44110	317.27640	-772.81598	446.79858	252.33043	-381.81104	547.59589	174.86319	-749.23596	91.24290	296.50546	-240.29103	181.37794	291.10733	
785	7.840	-589.68054	1431.51831	-99.88166	-649.57257	1685.10864	66.52785	-734.44989	1560.52856	-16.65256	-506.77762	1530.49109	-18.27285	-768.03625	1452.25891	196.66530	-478.03613	1433.48376	48.89477	-652.81213	1319.31775	73.06202	-561.77838	1445.73743	215.37097	-835.19757	1141.02295	272.09097	-270.12689	885.62469	175.25160	-901.17065	1088.75476	123.72518	-338.03601	1130.15308	126.57796	-689.60461	1030.32825	89.73679	-567.29083	1016.25751	40.56386	-532.42621	963.09778	312.58832	-776.04285	446.89053	252.86862	-392.75525	546.37592	164.46532	-750.25903	91.90427	295.65515	-254.09103	186.36674	285.45331	
